<svg xmlns="http://www.w3.org/2000/svg" viewBox="0 0 90 90"><defs><style>.cls-1{fill:#fff;}.cls-2{fill:#242e3d;}.cls-3{fill:#f90;}</style></defs><g id="Layer_2" data-name="Layer 2"><g id="Layer_1-2" data-name="Layer 1"><path class="cls-1" d="M61.2,0H0V61.5L28.5,90H90V28.8Z"/><path class="cls-2" d="M60.45,1.88,88.12,29.55V88.13H29.25L1.88,60.75V1.88H60.45M61.2,0H0V61.5L28.5,90H90V28.8Z"/><path class="cls-2" d="M20,20.62a1.76,1.76,0,0,0,.16.9c.07.23.22.53.3.75a.31.31,0,0,1,.07.23c0,.15-.07.23-.23.3l-.67.45h-.22a.39.39,0,0,1-.31-.15,2.1,2.1,0,0,1-.37-.45,4.77,4.77,0,0,1-.3-.6,3.85,3.85,0,0,1-3,1.43,2.56,2.56,0,0,1-2-.75,2.67,2.67,0,0,1-.75-2,2.73,2.73,0,0,1,.89-2.09,4.09,4.09,0,0,1,2.48-.83,4.31,4.31,0,0,1,1.05.08l1.13.22V17.4a2.15,2.15,0,0,0-.46-1.65,2.18,2.18,0,0,0-1.65-.45,6.27,6.27,0,0,0-1.12.15,6.68,6.68,0,0,0-1.12.37c-.15.08-.23.08-.38.16h-.15c-.15,0-.23-.08-.23-.3v-.53a.67.67,0,0,1,.08-.38,1,1,0,0,1,.3-.22,3.7,3.7,0,0,1,1.27-.45,5.74,5.74,0,0,1,1.58-.22A3.67,3.67,0,0,1,19,14.7a3.34,3.34,0,0,1,.82,2.48Zm-4.12,1.5A5.51,5.51,0,0,0,17,22a3.2,3.2,0,0,0,1-.68,1.46,1.46,0,0,0,.37-.68,3.39,3.39,0,0,0,.08-.89v-.46a4.23,4.23,0,0,0-.9-.15,4.26,4.26,0,0,0-1-.07,2.14,2.14,0,0,0-1.5.38,1.71,1.71,0,0,0-.15,2.25,1,1,0,0,0,1.05.44Zm8.17,1.13c-.14,0-.3,0-.37-.07a1.46,1.46,0,0,1-.22-.38l-2.41-7.87a.92.92,0,0,1-.07-.38c0-.15.07-.23.15-.23H22.2c.15,0,.3,0,.37.08a1.39,1.39,0,0,1,.23.37l1.72,6.68,1.58-6.68a.42.42,0,0,1,.22-.37.8.8,0,0,1,.38-.08h.82a.54.54,0,0,1,.38.08,1.39,1.39,0,0,1,.22.37L29.7,21.6l1.73-6.83a.41.41,0,0,1,.22-.37.64.64,0,0,1,.37-.08h1c.15,0,.23.08.23.16v.22c0,.07-.08.15-.08.23l-2.4,7.8a.4.4,0,0,1-.23.37c-.07.15-.22.15-.37.15h-.9c-.15,0-.3,0-.37-.07s-.15-.23-.23-.38l-1.58-6.53L25.5,22.8a.41.41,0,0,1-.23.38.45.45,0,0,1-.29.07Zm13,.3a10.43,10.43,0,0,1-1.57-.15,7.22,7.22,0,0,1-1.2-.38.57.57,0,0,1-.37-.59V21.9c0-.22.07-.3.22-.3h.15c.08,0,.15.08.22.08a7.1,7.1,0,0,0,1.13.37,6.91,6.91,0,0,0,1.2.15,2.63,2.63,0,0,0,1.5-.38,1.26,1.26,0,0,0,.53-1,.71.71,0,0,0-.31-.67,2.75,2.75,0,0,0-1-.53l-1.5-.45a3.27,3.27,0,0,1-1.64-1.05,2.7,2.7,0,0,1-.53-1.5,2.18,2.18,0,0,1,.3-1.13A3.1,3.1,0,0,1,36,14.18,3.47,3.47,0,0,1,37.27,14a2,2,0,0,1,.68.08,2.24,2.24,0,0,1,.67.15c.23.07.38.07.61.15s.29.08.45.15a1.29,1.29,0,0,1,.3.22.62.62,0,0,1,.07.38v.45c0,.22-.07.3-.23.3a.6.6,0,0,1-.37-.15,4.3,4.3,0,0,0-2-.37,2.88,2.88,0,0,0-1.35.3.83.83,0,0,0-.45.89.93.93,0,0,0,.3.75,2,2,0,0,0,1.12.53l1.43.45a3.41,3.41,0,0,1,1.57,1,2.28,2.28,0,0,1,.45,1.43,2.35,2.35,0,0,1-.3,1.2,2.27,2.27,0,0,1-.75.9,5.43,5.43,0,0,1-1.12.6,5.69,5.69,0,0,1-1.28.15Z"/><path class="cls-3" d="M39,28.43a21.93,21.93,0,0,1-12.38,3.75A22.41,22.41,0,0,1,11.55,26.4c-.3-.3,0-.67.38-.45A29.68,29.68,0,0,0,27,30a30.49,30.49,0,0,0,11.55-2.32c.52-.23,1.05.37.45.75Zm.52,2.25c-.14.3.16.44.46.22,1.79-1.5,2.25-4.65,1.87-5.1s-3.53-.82-5.4.52c-.3.23-.22.53.07.45,1-.15,3.46-.45,3.91.16s-.53,2.77-.91,3.75Z"/><path class="cls-2" d="M34.59,48.11a4.65,4.65,0,0,1,.41-2,3,3,0,0,1,1.22-1.33,4.15,4.15,0,0,1,3.8,0,3.06,3.06,0,0,1,1.23,1.31,4.6,4.6,0,0,1,.43,2,4.28,4.28,0,0,1-.6,2.34,3,3,0,0,1-1.67,1.29,3.75,3.75,0,0,0,1,.37,6.94,6.94,0,0,0,1.18.19v1.28A6.26,6.26,0,0,1,38,51.91a3.32,3.32,0,0,1-2.51-1,4,4,0,0,1-.9-2.76Zm1.62,0A3.09,3.09,0,0,0,36.7,50a1.71,1.71,0,0,0,1.44.65A1.69,1.69,0,0,0,39.57,50a3.89,3.89,0,0,0,0-3.78,1.69,1.69,0,0,0-1.43-.65,1.71,1.71,0,0,0-1.44.65,3.07,3.07,0,0,0-.49,1.89Z"/><path class="cls-2" d="M46.62,51.75l-.14-.56a3.24,3.24,0,0,1-2,.71,1.44,1.44,0,0,1-1.11-.42,1.61,1.61,0,0,1-.4-1.17V46.38h1.53v3.51c0,.56.25.84.74.84a1.93,1.93,0,0,0,1.07-.34v-4h1.53v5.37Z"/><path class="cls-2" d="M52.43,51.75l-.13-.47a2.51,2.51,0,0,1-.75.47,2.25,2.25,0,0,1-.82.16,1.76,1.76,0,0,1-1.25-.43A1.56,1.56,0,0,1,49,50.3a1.61,1.61,0,0,1,.24-.88,1.76,1.76,0,0,1,.73-.61,2.59,2.59,0,0,1,1.11-.22,4.62,4.62,0,0,1,1.11.14V48.2a.88.88,0,0,0-.19-.66,1.13,1.13,0,0,0-.73-.18,6.63,6.63,0,0,0-1.91.32v-1a4,4,0,0,1,1-.31,6,6,0,0,1,1.2-.12,2.39,2.39,0,0,1,1.57.43,1.75,1.75,0,0,1,.5,1.38v3.71Zm-1.27-.85a1.39,1.39,0,0,0,.54-.12,1.69,1.69,0,0,0,.51-.32v-.91a4.93,4.93,0,0,0-.81-.07c-.62,0-.92.24-.92.72a.71.71,0,0,0,.18.52.65.65,0,0,0,.5.18Z"/><path class="cls-2" d="M57.44,51.65a2.62,2.62,0,0,1-.94.17c-.94,0-1.41-.53-1.41-1.58V44h1.53v6.13a.75.75,0,0,0,.09.42.42.42,0,0,0,.33.12,2.23,2.23,0,0,0,.4,0Z"/><path class="cls-2" d="M58.54,51.75V46.38h1.53v5.37Zm.77-6.2a1,1,0,0,1-.65-.21.79.79,0,0,1-.24-.61.73.73,0,0,1,.24-.58.94.94,0,0,1,.65-.23.89.89,0,0,1,.63.23.73.73,0,0,1,.25.58.8.8,0,0,1-.25.61.92.92,0,0,1-.63.21Z"/><path class="cls-2" d="M61.84,51.75V47.52H61v-1l.84-.15v-.48a2.25,2.25,0,0,1,.48-1.58,1.93,1.93,0,0,1,1.5-.53,3.11,3.11,0,0,1,.59.06,3.07,3.07,0,0,1,.53.15v1a5.08,5.08,0,0,0-.71-.06,1.07,1.07,0,0,0-.68.17.72.72,0,0,0-.17.55v.64h1.5v1.14h-1.5v4.23Z"/><path class="cls-2" d="M65.69,51.75V46.38h1.54v5.37Zm.78-6.2a1,1,0,0,1-.65-.21.79.79,0,0,1-.24-.61.73.73,0,0,1,.24-.58.94.94,0,0,1,.65-.23.89.89,0,0,1,.63.23.7.7,0,0,1,.25.58.76.76,0,0,1-.25.61.92.92,0,0,1-.63.21Z"/><path class="cls-2" d="M69.88,49.44a1.38,1.38,0,0,0,.42,1,1.91,1.91,0,0,0,1.19.3,5.64,5.64,0,0,0,1.64-.27v1a2.93,2.93,0,0,1-.88.3,5.22,5.22,0,0,1-1.06.1,2.73,2.73,0,0,1-2-.71,2.93,2.93,0,0,1-.71-2.12,2.9,2.9,0,0,1,.7-2.09,2.5,2.5,0,0,1,1.93-.75,2.12,2.12,0,0,1,1.59.58,2.16,2.16,0,0,1,.57,1.62c0,.16,0,.34,0,.53a3.61,3.61,0,0,1-.07.48ZM71,47.29a1.07,1.07,0,0,0-.82.31,1.45,1.45,0,0,0-.34.89h2.06v-.17c0-.69-.3-1-.9-1Z"/><path class="cls-2" d="M78.05,51.75l-.13-.47a2.18,2.18,0,0,1-1.55.59,2.1,2.1,0,0,1-1.16-.33,2.27,2.27,0,0,1-.78-1,3.6,3.6,0,0,1-.28-1.49A3.16,3.16,0,0,1,74.77,47a2,2,0,0,1,1.64-.79,2.32,2.32,0,0,1,1.44.47V44h1.54v7.77Zm-1.17-1a1.78,1.78,0,0,0,1-.3V47.65a2,2,0,0,0-1-.27.92.92,0,0,0-.83.42,2.31,2.31,0,0,0-.27,1.26A2.21,2.21,0,0,0,76,50.3a1,1,0,0,0,.89.41Z"/><path class="cls-2" d="M48.39,61.88V54.6H51a3.24,3.24,0,0,1,2.5.94,3.8,3.8,0,0,1,.87,2.69,3.86,3.86,0,0,1-.87,2.7,3.22,3.22,0,0,1-2.48,1ZM50,55.82v4.84h.9c1.26,0,1.9-.78,1.9-2.32v-.22c0-1.53-.64-2.3-1.91-2.3Z"/><path class="cls-2" d="M56.88,59.57a1.35,1.35,0,0,0,.42,1,1.84,1.84,0,0,0,1.19.31,6,6,0,0,0,1.64-.27v1a2.93,2.93,0,0,1-.88.29,5.22,5.22,0,0,1-1.06.11,2.69,2.69,0,0,1-2-.72,2.92,2.92,0,0,1-.71-2.12,2.88,2.88,0,0,1,.7-2.08,2.5,2.5,0,0,1,1.93-.75,2.12,2.12,0,0,1,1.59.57,2.2,2.2,0,0,1,.57,1.63c0,.16,0,.34,0,.53a4.2,4.2,0,0,1-.07.48ZM58,57.41a1.08,1.08,0,0,0-.82.32,1.42,1.42,0,0,0-.34.89h2.06v-.18c0-.69-.3-1-.9-1Z"/><path class="cls-2" d="M62.76,61.88l-2-5.37h1.62l1.15,4,1.17-4h1.58l-2,5.37Z"/><path class="cls-2" d="M67.07,61.88V56.51H68.6v5.37Zm.77-6.2a.91.91,0,0,1-.64-.22.74.74,0,0,1-.25-.6.72.72,0,0,1,.25-.59,1,1,0,0,1,1.28,0,.75.75,0,0,1,.24.59.77.77,0,0,1-.24.6.91.91,0,0,1-.64.22Z"/><path class="cls-2" d="M74,61.64a2.19,2.19,0,0,1-.68.26,3.84,3.84,0,0,1-.83.09,2.58,2.58,0,0,1-2-.71,3.43,3.43,0,0,1,0-4.14,2.67,2.67,0,0,1,2-.75,3,3,0,0,1,1.41.34v1a4.07,4.07,0,0,0-1.13-.18,1.43,1.43,0,0,0-1.09.38,1.65,1.65,0,0,0-.34,1.17v.15a1.7,1.7,0,0,0,.34,1.18,1.34,1.34,0,0,0,1.05.37,4.41,4.41,0,0,0,1.2-.2Z"/><path class="cls-2" d="M76.22,59.57a1.35,1.35,0,0,0,.42,1,1.84,1.84,0,0,0,1.19.31,6,6,0,0,0,1.64-.27v1a2.93,2.93,0,0,1-.88.29,5.22,5.22,0,0,1-1.06.11,2.69,2.69,0,0,1-2-.72,2.92,2.92,0,0,1-.71-2.12,2.88,2.88,0,0,1,.7-2.08,2.5,2.5,0,0,1,1.93-.75,2.12,2.12,0,0,1,1.59.57,2.2,2.2,0,0,1,.57,1.63c0,.16,0,.34,0,.53a4.2,4.2,0,0,1-.07.48Zm1.15-2.16a1.08,1.08,0,0,0-.82.32,1.37,1.37,0,0,0-.34.89h2.06v-.18c0-.69-.3-1-.9-1Z"/><path class="cls-2" d="M53.6,71.62l-.43-1.3h-2l-.43,1.3h-1l1.89-5.2h1l1.88,5.2Zm-2.21-2H53l-.79-2.41Z"/><path class="cls-2" d="M59.06,71.62l-.91-3.9-.93,3.9h-1l-1.47-5.2h1l1,4.22.92-4.07h1l.93,4.06,1-4.21h1l-1.47,5.2Z"/><path class="cls-2" d="M63.27,69.23a2.27,2.27,0,0,1-.92-.57,1.25,1.25,0,0,1-.28-.83,1.39,1.39,0,0,1,.49-1.12,2,2,0,0,1,1.32-.41,4,4,0,0,1,1.41.27v.73A4.61,4.61,0,0,0,64,67.08c-.66,0-1,.22-1,.67a.57.57,0,0,0,.17.42,2,2,0,0,0,.65.33l.64.23a2.11,2.11,0,0,1,.9.56,1.25,1.25,0,0,1,.28.85,1.41,1.41,0,0,1-.53,1.18,2.25,2.25,0,0,1-1.46.43,4.23,4.23,0,0,1-.79-.08,3,3,0,0,1-.7-.22v-.73a5.78,5.78,0,0,0,.77.19,4,4,0,0,0,.72.07,1.43,1.43,0,0,0,.81-.19.63.63,0,0,0,.29-.55.54.54,0,0,0-.17-.42,2,2,0,0,0-.6-.33Z"/><rect class="cls-2" x="68.59" y="66.42" width="0.91" height="5.2"/><path class="cls-2" d="M72.34,71.74A1.76,1.76,0,0,1,71,71.2a2.14,2.14,0,0,1-.49-1.49A2.1,2.1,0,0,1,71,68.24a1.76,1.76,0,0,1,1.36-.54,1.71,1.71,0,0,1,1.35.54,2.06,2.06,0,0,1,.49,1.47,2.09,2.09,0,0,1-.49,1.49,1.71,1.71,0,0,1-1.35.54Zm0-.7c.64,0,1-.44,1-1.33s-.31-1.32-1-1.32-1,.44-1,1.32.32,1.33,1,1.33Z"/><path class="cls-2" d="M76.27,71.62V67.17H74.64v-.75h4.17v.75H77.18v4.45Z"/><path class="cls-2" d="M44.05,78.45a4.39,4.39,0,0,0,.72-.07V77H43.69v-.72h1.93v2.55a3.26,3.26,0,0,1-.8.28,4.08,4.08,0,0,1-.93.11A2.49,2.49,0,0,1,42,78.54a3.38,3.38,0,0,1,0-4,2.48,2.48,0,0,1,1.9-.7,3.4,3.4,0,0,1,1.49.32v.72A4.31,4.31,0,0,0,44,74.61a1.74,1.74,0,0,0-1.31.46,2,2,0,0,0-.41,1.39v.17A1.9,1.9,0,0,0,42.73,78a1.76,1.76,0,0,0,1.32.44Z"/><path class="cls-2" d="M46.68,79.13V75.3h.74l.12.58a2.14,2.14,0,0,1,.56-.46,1.2,1.2,0,0,1,.57-.14l.31,0v.81a3.15,3.15,0,0,0-.44,0,1.7,1.7,0,0,0-1,.28v2.77Z"/><path class="cls-2" d="M50.19,77.43a1.2,1.2,0,0,0,.32.84,1.4,1.4,0,0,0,.92.26,3.86,3.86,0,0,0,1.2-.2V79a2.29,2.29,0,0,1-.61.21,2.84,2.84,0,0,1-.72.08,1.91,1.91,0,0,1-1.43-.5,2.09,2.09,0,0,1-.5-1.5,2.18,2.18,0,0,1,.48-1.5,1.72,1.72,0,0,1,1.34-.54,1.51,1.51,0,0,1,1.13.4,1.54,1.54,0,0,1,.39,1.13,3,3,0,0,1-.07.7Zm1-1.59a.86.86,0,0,0-.65.27,1.22,1.22,0,0,0-.3.73h1.74v-.06a1.07,1.07,0,0,0-.2-.69.74.74,0,0,0-.59-.25Z"/><path class="cls-2" d="M54.19,77.43a1.16,1.16,0,0,0,.32.84,1.39,1.39,0,0,0,.91.26,3.87,3.87,0,0,0,1.21-.2V79a2.42,2.42,0,0,1-.61.21,3,3,0,0,1-.73.08,1.94,1.94,0,0,1-1.43-.5,2.09,2.09,0,0,1-.49-1.5,2.18,2.18,0,0,1,.48-1.5,1.7,1.7,0,0,1,1.34-.54,1.49,1.49,0,0,1,1.12.4,1.54,1.54,0,0,1,.4,1.13,3,3,0,0,1-.07.7Zm1-1.59a.88.88,0,0,0-.66.27,1.15,1.15,0,0,0-.29.73h1.74v-.06a1.07,1.07,0,0,0-.2-.69.74.74,0,0,0-.59-.25Z"/><path class="cls-2" d="M60.1,79.13V76.59a.77.77,0,0,0-.15-.52.6.6,0,0,0-.48-.18,1.86,1.86,0,0,0-1,.33v2.91h-.89V75.3h.74l.08.43a2.44,2.44,0,0,1,1.48-.53A1,1,0,0,1,61,76.32v2.81Z"/><path class="cls-2" d="M64.48,78.63a1.67,1.67,0,0,1-1.11.42,1.36,1.36,0,0,1-1.12-.51,2.19,2.19,0,0,1-.41-1.41,2.4,2.4,0,0,1,.19-1,1.45,1.45,0,0,1,.54-.69,1.41,1.41,0,0,1,.84-.25,1.59,1.59,0,0,1,1.13.46l.08-.36h.72v3.57a1.87,1.87,0,0,1-.49,1.39,1.84,1.84,0,0,1-1.39.51,2.78,2.78,0,0,1-1.3-.32v-.62a4.34,4.34,0,0,0,1.25.22,1.07,1.07,0,0,0,.81-.26,1.16,1.16,0,0,0,.26-.84Zm-.85-.27a1.39,1.39,0,0,0,.85-.29V76.16a1.45,1.45,0,0,0-.84-.27.78.78,0,0,0-.68.31,1.56,1.56,0,0,0-.22.91c0,.84.3,1.25.89,1.25Z"/><path class="cls-2" d="M66.43,79.13V75.3h.73l.12.58a2.14,2.14,0,0,1,.56-.46,1.27,1.27,0,0,1,.58-.14l.3,0v.81a3,3,0,0,0-.43,0,1.68,1.68,0,0,0-1,.28v2.77Z"/><path class="cls-2" d="M71.55,79.13l-.07-.37a2.24,2.24,0,0,1-.59.35,1.58,1.58,0,0,1-.63.13,1.2,1.2,0,0,1-.86-.31,1.13,1.13,0,0,1-.31-.82,1.09,1.09,0,0,1,.39-.88,1.61,1.61,0,0,1,1.08-.34,4.06,4.06,0,0,1,.87.11v-.44a.71.71,0,0,0-.16-.53.9.9,0,0,0-.58-.15,4.59,4.59,0,0,0-1.35.24V75.5a3.4,3.4,0,0,1,.68-.22,4.36,4.36,0,0,1,.81-.08,1.62,1.62,0,0,1,1.08.3,1.17,1.17,0,0,1,.35.93v2.7Zm-1-.52a1.29,1.29,0,0,0,.46-.09,2.48,2.48,0,0,0,.47-.27v-.72a4,4,0,0,0-.7-.08c-.53,0-.79.2-.79.6a.57.57,0,0,0,.15.42.6.6,0,0,0,.41.14Z"/><path class="cls-2" d="M75,78.09a.38.38,0,0,0-.1-.27,1.12,1.12,0,0,0-.39-.21l-.62-.23a1.11,1.11,0,0,1-.84-1.06,1,1,0,0,1,.38-.82,1.72,1.72,0,0,1,1-.3,2.67,2.67,0,0,1,1.12.23v.62a3.58,3.58,0,0,0-1.07-.18,1,1,0,0,0-.5.1.35.35,0,0,0-.16.32.33.33,0,0,0,.11.27,2,2,0,0,0,.41.22L75,77a1.46,1.46,0,0,1,.64.43.85.85,0,0,1,.2.59,1,1,0,0,1-.41.89,1.7,1.7,0,0,1-1.12.33,2.61,2.61,0,0,1-.69-.08,2.41,2.41,0,0,1-.59-.21v-.62a4,4,0,0,0,1.28.23,1.06,1.06,0,0,0,.54-.11.42.42,0,0,0,.17-.36Z"/><path class="cls-2" d="M78.32,78.09a.39.39,0,0,0-.11-.27,1.06,1.06,0,0,0-.38-.21l-.62-.23a1.11,1.11,0,0,1-.85-1.06,1,1,0,0,1,.39-.82,1.69,1.69,0,0,1,1-.3,2.71,2.71,0,0,1,1.13.23v.62a3.63,3.63,0,0,0-1.07-.18.94.94,0,0,0-.5.1.38.38,0,0,0,0,.59,1.79,1.79,0,0,0,.41.22l.59.22a1.59,1.59,0,0,1,.64.43.9.9,0,0,1,.2.59,1.07,1.07,0,0,1-.41.89,1.73,1.73,0,0,1-1.13.33,2.71,2.71,0,0,1-.69-.08,2.33,2.33,0,0,1-.58-.21v-.62a4,4,0,0,0,1.27.23,1,1,0,0,0,.54-.11.4.4,0,0,0,.18-.36Z"/></g></g></svg>